<svg width="154" height="47" viewBox="0 0 154 47" fill="none" xmlns="http://www.w3.org/2000/svg">
<path d="M68.8042 23.2347H61.8873L61.8498 20.3293H68.1294C69.1666 20.3293 70.0726 20.1543 70.8474 19.8044C71.6222 19.4545 72.222 18.9547 72.6469 18.3048C73.0843 17.6425 73.303 16.8552 73.303 15.943C73.303 14.9433 73.1093 14.131 72.7219 13.5061C72.347 12.8688 71.7659 12.4064 70.9786 12.119C70.2038 11.8191 69.2166 11.6691 68.0169 11.6691H62.6934V36H59.0756V8.70745H68.0169C69.4165 8.70745 70.6662 8.85116 71.7659 9.13859C72.8656 9.41351 73.7966 9.85089 74.5589 10.4507C75.3337 11.0381 75.921 11.7879 76.3209 12.7001C76.7208 13.6124 76.9207 14.7058 76.9207 15.9805C76.9207 17.1052 76.6333 18.1236 76.0585 19.0359C75.4836 19.9356 74.6838 20.6729 73.6591 21.2478C72.6469 21.8226 71.4597 22.1913 70.0976 22.3537L68.8042 23.2347ZM68.6355 36H60.4627L62.5059 33.0571H68.6355C69.7852 33.0571 70.7599 32.8571 71.5597 32.4572C72.372 32.0573 72.9906 31.495 73.4154 30.7702C73.8403 30.0329 74.0528 29.1644 74.0528 28.1647C74.0528 27.1524 73.8716 26.2777 73.5092 25.5404C73.1468 24.8031 72.5782 24.2345 71.8034 23.8346C71.0286 23.4347 70.0289 23.2347 68.8042 23.2347H63.6494L63.6868 20.3293H70.7349L71.5035 21.379C72.8156 21.4915 73.9278 21.8664 74.8401 22.5037C75.7523 23.1285 76.4459 23.9283 76.9207 24.903C77.4081 25.8778 77.6518 26.9525 77.6518 28.1272C77.6518 29.8267 77.2769 31.2638 76.5271 32.4385C75.7898 33.6007 74.7463 34.4879 73.3967 35.1003C72.0471 35.7001 70.46 36 68.6355 36ZM86.2369 7.20786V36H82.7504V7.20786H86.2369ZM95.5719 15.718V36H92.0854V15.718H95.5719ZM91.8229 10.3383C91.8229 9.77591 91.9916 9.30104 92.329 8.91365C92.6789 8.52625 93.1913 8.33256 93.8661 8.33256C94.5284 8.33256 95.0346 8.52625 95.3845 8.91365C95.7469 9.30104 95.9281 9.77591 95.9281 10.3383C95.9281 10.8756 95.7469 11.338 95.3845 11.7254C95.0346 12.1003 94.5284 12.2877 93.8661 12.2877C93.1913 12.2877 92.6789 12.1003 92.329 11.7254C91.9916 11.338 91.8229 10.8756 91.8229 10.3383ZM104.588 19.7482V36H101.102V15.718H104.401L104.588 19.7482ZM103.876 25.0905L102.264 25.0343C102.276 23.6471 102.458 22.3662 102.807 21.1916C103.157 20.0044 103.676 18.9734 104.363 18.0986C105.051 17.2239 105.907 16.5491 106.931 16.0742C107.956 15.5868 109.143 15.3431 110.493 15.3431C111.443 15.3431 112.317 15.4806 113.117 15.7555C113.917 16.018 114.61 16.4366 115.198 17.0114C115.785 17.5863 116.241 18.3236 116.566 19.2233C116.891 20.1231 117.054 21.2103 117.054 22.4849V36H113.586V22.6537C113.586 21.5914 113.405 20.7417 113.042 20.1043C112.692 19.467 112.192 19.0046 111.543 18.7172C110.893 18.4173 110.13 18.2673 109.256 18.2673C108.231 18.2673 107.375 18.4485 106.688 18.8109C106 19.1734 105.45 19.6732 105.038 20.3105C104.626 20.9479 104.326 21.6789 104.138 22.5037C103.963 23.316 103.876 24.1782 103.876 25.0905ZM117.016 23.1785L114.692 23.8908C114.704 22.7786 114.885 21.7102 115.235 20.6854C115.598 19.6607 116.116 18.7485 116.791 17.9487C117.478 17.1489 118.322 16.5178 119.322 16.0555C120.321 15.5806 121.465 15.3431 122.752 15.3431C123.839 15.3431 124.801 15.4869 125.639 15.7743C126.488 16.0617 127.201 16.5053 127.776 17.1052C128.363 17.6925 128.807 18.4485 129.107 19.3733C129.406 20.298 129.556 21.3977 129.556 22.6724V36H126.07V22.6349C126.07 21.4977 125.889 20.6167 125.526 19.9919C125.176 19.3546 124.676 18.9109 124.027 18.661C123.389 18.3986 122.627 18.2673 121.74 18.2673C120.977 18.2673 120.303 18.3986 119.715 18.661C119.128 18.9234 118.634 19.2858 118.234 19.7482C117.835 20.1981 117.528 20.7167 117.316 21.304C117.116 21.8914 117.016 22.5162 117.016 23.1785ZM138.273 19.617V43.7979H134.786V15.718H137.973L138.273 19.617ZM151.938 25.6903V26.084C151.938 27.5586 151.763 28.9269 151.413 30.1891C151.063 31.4388 150.551 32.526 149.876 33.4507C149.214 34.3755 148.395 35.094 147.42 35.6064C146.446 36.1187 145.327 36.3749 144.065 36.3749C142.778 36.3749 141.641 36.1625 140.653 35.7376C139.666 35.3127 138.829 34.6941 138.142 33.8818C137.454 33.0696 136.904 32.0948 136.492 30.9576C136.092 29.8204 135.817 28.5395 135.667 27.1149V25.0155C135.817 23.5159 136.098 22.1725 136.511 20.9854C136.923 19.7982 137.467 18.786 138.142 17.9487C138.829 17.0989 139.66 16.4553 140.635 16.018C141.609 15.5681 142.734 15.3431 144.009 15.3431C145.283 15.3431 146.414 15.5931 147.402 16.0929C148.389 16.5803 149.22 17.2801 149.895 18.1924C150.569 19.1046 151.076 20.1981 151.413 21.4727C151.763 22.7349 151.938 24.1407 151.938 25.6903ZM148.451 26.084V25.6903C148.451 24.6781 148.345 23.7284 148.133 22.8411C147.92 21.9413 147.589 21.1541 147.139 20.4792C146.702 19.7919 146.139 19.2546 145.452 18.8672C144.765 18.4673 143.946 18.2673 142.996 18.2673C142.122 18.2673 141.359 18.4173 140.71 18.7172C140.072 19.0171 139.529 19.4233 139.079 19.9356C138.629 20.4355 138.26 21.0104 137.973 21.6602C137.698 22.2975 137.492 22.9598 137.354 23.6471V28.5021C137.604 29.3768 137.954 30.2016 138.404 30.9764C138.854 31.7387 139.454 32.3573 140.203 32.8321C140.953 33.2945 141.897 33.5257 143.034 33.5257C143.971 33.5257 144.777 33.332 145.452 32.9446C146.139 32.5447 146.702 32.0011 147.139 31.3138C147.589 30.6265 147.92 29.8392 148.133 28.9519C148.345 28.0522 148.451 27.0962 148.451 26.084Z" fill="#999999"/>
<path d="M35.5776 15.8444C38.3846 15.8444 40.6601 13.5798 40.6601 10.7863C40.6601 7.99282 38.3846 5.72824 35.5776 5.72824C32.7706 5.72824 30.4951 7.99282 30.4951 10.7863C30.4951 13.5798 32.7706 15.8444 35.5776 15.8444Z" fill="#999999"/>
<path d="M17.7888 10.7863C16.8028 10.7863 15.8371 10.8723 14.8917 11.024C13.9159 7.95378 11.029 5.72824 7.62375 5.72824C3.41544 5.72824 0 9.12727 0 13.3154C0 15.637 1.05208 17.7159 2.7039 19.1069C0.991092 21.8281 0 25.04 0 28.4896C0 38.2669 7.96428 46.1929 17.7888 46.1929C27.6132 46.1929 35.5775 38.2669 35.5775 28.4896C35.5775 18.7123 27.6132 10.7863 17.7888 10.7863ZM24.7264 33.5477C23.8471 32.0353 22.2105 31.0187 20.33 31.0187C18.4495 31.0187 16.8129 32.0353 15.9336 33.5477C15.5016 32.8042 15.2475 31.9392 15.2475 31.0187C15.2475 28.2266 17.5245 25.9606 20.33 25.9606C23.1356 25.9606 25.4125 28.2266 25.4125 31.0187C25.4125 31.9392 25.1584 32.8042 24.7264 33.5477Z" fill="#999999"/>
</svg>
