<svg width="133" height="46" viewBox="0 0 133 46" fill="none" xmlns="http://www.w3.org/2000/svg">
<path d="M71.3459 43.7978V19.6169L71.6458 15.718H74.8325V43.7978H71.3459ZM57.7184 26.0839V25.6903C57.7184 24.1407 57.8996 22.7348 58.262 21.4727C58.6244 20.198 59.1555 19.1046 59.8553 18.1923C60.5551 17.2801 61.3986 16.5803 62.3859 16.0929C63.3856 15.593 64.5228 15.3431 65.7974 15.3431C67.0721 15.3431 68.1905 15.568 69.1528 16.0179C70.1275 16.4553 70.9523 17.0989 71.6271 17.9486C72.3144 18.7859 72.858 19.7981 73.2579 20.9853C73.6578 22.1725 73.9327 23.5159 74.0827 25.0155V26.74C73.9452 28.2271 73.6765 29.5642 73.2766 30.7514C72.8768 31.9386 72.3332 32.9508 71.6458 33.7881C70.971 34.6253 70.14 35.2689 69.1528 35.7188C68.178 36.1562 67.0471 36.3749 65.7599 36.3749C64.5103 36.3749 63.3856 36.1187 62.3859 35.6063C61.3986 35.094 60.5551 34.3754 59.8553 33.4507C59.168 32.5259 58.6369 31.4387 58.262 30.1891C57.8996 28.9269 57.7184 27.5585 57.7184 26.0839ZM61.2049 25.6903V26.0839C61.2049 27.0961 61.3112 28.0521 61.5236 28.9519C61.736 29.8391 62.061 30.6264 62.4983 31.3137C62.9482 32.0011 63.5106 32.5447 64.1854 32.9446C64.8727 33.3319 65.685 33.5256 66.6222 33.5256C67.7719 33.5256 68.7279 33.2757 69.4902 32.7758C70.265 32.276 70.8835 31.6199 71.3459 30.8076C71.8083 29.9829 72.1644 29.1018 72.4144 28.1646V23.6471C72.2769 22.9598 72.0582 22.2912 71.7583 21.6414C71.4709 20.9916 71.096 20.4105 70.6336 19.8981C70.1712 19.3733 69.6089 18.9609 68.9466 18.6609C68.2968 18.3485 67.5345 18.1923 66.6597 18.1923C65.71 18.1923 64.8914 18.3923 64.2041 18.7922C63.5168 19.1921 62.9482 19.7419 62.4983 20.4417C62.061 21.129 61.736 21.9226 61.5236 22.8223C61.3112 23.7221 61.2049 24.6781 61.2049 25.6903ZM83.8675 18.9046V36H80.3997V15.718H83.7738L83.8675 18.9046ZM90.2033 15.6055L90.1845 18.8296C89.8971 18.7672 89.6222 18.7297 89.3598 18.7172C89.1098 18.6922 88.8224 18.6797 88.4975 18.6797C87.6977 18.6797 86.9917 18.8047 86.3793 19.0546C85.767 19.3045 85.2484 19.6544 84.8235 20.1043C84.3986 20.5542 84.0612 21.0915 83.8113 21.7164C83.5738 22.3287 83.4176 23.0035 83.3427 23.7408L82.3679 24.3032C82.3679 23.0785 82.4866 21.9288 82.7241 20.8541C82.974 19.7794 83.3551 18.8296 83.8675 18.0049C84.3799 17.1676 85.0297 16.5178 85.817 16.0554C86.6168 15.5805 87.5665 15.3431 88.6662 15.3431C88.9161 15.3431 89.2036 15.3743 89.5285 15.4368C89.8534 15.4868 90.0783 15.543 90.2033 15.6055ZM101.15 33.5256C101.975 33.5256 102.737 33.3569 103.437 33.0195C104.137 32.6821 104.712 32.2197 105.162 31.6324C105.612 31.0326 105.868 30.3515 105.93 29.5892H109.229C109.167 30.7889 108.761 31.9073 108.011 32.9446C107.274 33.9693 106.305 34.8003 105.105 35.4376C103.906 36.0625 102.587 36.3749 101.15 36.3749C99.6257 36.3749 98.2948 36.1062 97.1576 35.5688C96.0329 35.0315 95.0957 34.2942 94.3459 33.3569C93.6086 32.4197 93.0525 31.345 92.6776 30.1328C92.3152 28.9082 92.134 27.6148 92.134 26.2526V25.4653C92.134 24.1032 92.3152 22.8161 92.6776 21.6039C93.0525 20.3792 93.6086 19.2983 94.3459 18.361C95.0957 17.4238 96.0329 16.6865 97.1576 16.1491C98.2948 15.6118 99.6257 15.3431 101.15 15.3431C102.737 15.3431 104.124 15.668 105.312 16.3178C106.499 16.9552 107.43 17.8299 108.105 18.9421C108.792 20.0418 109.167 21.2915 109.229 22.6911H105.93C105.868 21.8538 105.63 21.0978 105.218 20.423C104.818 19.7481 104.268 19.2108 103.568 18.8109C102.881 18.3985 102.075 18.1923 101.15 18.1923C100.088 18.1923 99.1946 18.4048 98.4698 18.8296C97.7575 19.242 97.1889 19.8044 96.764 20.5167C96.3516 21.2165 96.0517 21.9975 95.8642 22.8598C95.6893 23.7096 95.6018 24.5781 95.6018 25.4653V26.2526C95.6018 27.1399 95.6893 28.0146 95.8642 28.8769C96.0392 29.7392 96.3329 30.5202 96.7453 31.22C97.1701 31.9198 97.7387 32.4822 98.451 32.9071C99.1758 33.3194 100.076 33.5256 101.15 33.5256ZM112.21 26.0839V25.6528C112.21 24.1907 112.422 22.8348 112.847 21.5851C113.272 20.323 113.884 19.2295 114.684 18.3048C115.484 17.3675 116.452 16.6427 117.59 16.1304C118.727 15.6055 120.001 15.3431 121.414 15.3431C122.838 15.3431 124.119 15.6055 125.256 16.1304C126.406 16.6427 127.381 17.3675 128.18 18.3048C128.993 19.2295 129.611 20.323 130.036 21.5851C130.461 22.8348 130.674 24.1907 130.674 25.6528V26.0839C130.674 27.546 130.461 28.9019 130.036 30.1516C129.611 31.4012 128.993 32.4947 128.18 33.4319C127.381 34.3567 126.412 35.0815 125.275 35.6063C124.15 36.1187 122.876 36.3749 121.451 36.3749C120.026 36.3749 118.746 36.1187 117.608 35.6063C116.471 35.0815 115.496 34.3567 114.684 33.4319C113.884 32.4947 113.272 31.4012 112.847 30.1516C112.422 28.9019 112.21 27.546 112.21 26.0839ZM115.678 25.6528V26.0839C115.678 27.0961 115.796 28.0521 116.034 28.9519C116.271 29.8391 116.627 30.6264 117.102 31.3137C117.59 32.0011 118.196 32.5447 118.92 32.9446C119.645 33.3319 120.489 33.5256 121.451 33.5256C122.401 33.5256 123.232 33.3319 123.944 32.9446C124.669 32.5447 125.269 32.0011 125.744 31.3137C126.218 30.6264 126.575 29.8391 126.812 28.9519C127.062 28.0521 127.187 27.0961 127.187 26.0839V25.6528C127.187 24.6531 127.062 23.7096 126.812 22.8223C126.575 21.9226 126.212 21.129 125.725 20.4417C125.25 19.7419 124.65 19.1921 123.925 18.7922C123.213 18.3923 122.376 18.1923 121.414 18.1923C120.464 18.1923 119.627 18.3923 118.902 18.7922C118.189 19.1921 117.59 19.7419 117.102 20.4417C116.627 21.129 116.271 21.9226 116.034 22.8223C115.796 23.7096 115.678 24.6531 115.678 25.6528Z" fill="#999999"/>
<path d="M15.2557 5.48448H0V20.6587H15.2557V5.48448Z" fill="#999999"/>
<path d="M25.4262 5.48448H20.3409V15.6006H25.4262V5.48448Z" fill="#999999"/>
<path d="M40.6818 5.48448H30.5114V20.6587H40.6818V5.48448Z" fill="#999999"/>
<path d="M30.5113 20.6586H15.2556V45.949H30.5113V20.6586Z" fill="#999999"/>
<path d="M10.1705 35.8327H0V45.9489H10.1705V35.8327Z" fill="#999999"/>
<path d="M10.1705 25.7167H0V30.7748H10.1705V25.7167Z" fill="#999999"/>
<path opacity="0.8902" d="M40.6818 35.8327H35.5966V45.9489H40.6818V35.8327Z" fill="#999999"/>
<path d="M40.6818 25.7167H35.5966V30.7748H40.6818V25.7167Z" fill="#999999"/>
</svg>
