<svg width="157" height="41" viewBox="0 0 157 41" fill="none" xmlns="http://www.w3.org/2000/svg">
<path d="M65.345 29.8894H60.7404L60.7707 27.5114H65.345C66.9202 27.5114 68.2329 27.1832 69.283 26.5269C70.3332 25.8605 71.1208 24.9315 71.6459 23.7399C72.181 22.5383 72.4486 21.1348 72.4486 19.5292V18.1812C72.4486 16.919 72.2972 15.7982 71.9942 14.8187C71.6913 13.8291 71.247 12.9961 70.6614 12.3195C70.0757 11.6329 69.3588 11.1129 68.5106 10.7594C67.6725 10.406 66.7081 10.2293 65.6176 10.2293H60.6496V7.83618H65.6176C67.0615 7.83618 68.3793 8.07853 69.5708 8.56321C70.7623 9.0378 71.7872 9.72949 72.6455 10.6383C73.5139 11.537 74.1804 12.6275 74.6449 13.9099C75.1094 15.1822 75.3416 16.6161 75.3416 18.2115V19.5292C75.3416 21.1247 75.1094 22.5636 74.6449 23.846C74.1804 25.1183 73.5089 26.2038 72.6304 27.1025C71.762 28.0011 70.7118 28.6928 69.4799 29.1775C68.2581 29.6521 66.8798 29.8894 65.345 29.8894ZM62.3005 7.83618V29.8894H59.3773V7.83618H62.3005ZM82.1121 16.0758V29.8894H79.31V13.501H82.0363L82.1121 16.0758ZM87.2316 13.4101L87.2164 16.0153C86.9842 15.9648 86.762 15.9345 86.55 15.9244C86.348 15.9042 86.1158 15.8941 85.8532 15.8941C85.207 15.8941 84.6365 15.9951 84.1417 16.197C83.6469 16.399 83.2279 16.6817 82.8845 17.0452C82.5412 17.4087 82.2686 17.8429 82.0666 18.3478C81.8748 18.8426 81.7486 19.3879 81.688 19.9836L80.9004 20.438C80.9004 19.4485 80.9963 18.5195 81.1881 17.6511C81.3901 16.7827 81.6981 16.0153 82.1121 15.3488C82.5261 14.6723 83.0511 14.1472 83.6873 13.7736C84.3335 13.3899 85.101 13.198 85.9896 13.198C86.1915 13.198 86.4238 13.2233 86.6863 13.2738C86.9488 13.3141 87.1306 13.3596 87.2316 13.4101ZM88.7765 21.8769V21.5286C88.7765 20.3471 88.9482 19.2516 89.2915 18.2418C89.6348 17.2219 90.1296 16.3384 90.7758 15.5912C91.4221 14.8338 92.2046 14.2482 93.1235 13.8342C94.0424 13.4101 95.0724 13.198 96.2134 13.198C97.3645 13.198 98.3995 13.4101 99.3184 13.8342C100.247 14.2482 101.035 14.8338 101.681 15.5912C102.338 16.3384 102.837 17.2219 103.181 18.2418C103.524 19.2516 103.696 20.3471 103.696 21.5286V21.8769C103.696 23.0584 103.524 24.154 103.181 25.1637C102.837 26.1735 102.338 27.057 101.681 27.8143C101.035 28.5616 100.252 29.1472 99.3336 29.5713C98.4248 29.9853 97.3948 30.1923 96.2437 30.1923C95.0926 30.1923 94.0576 29.9853 93.1387 29.5713C92.2198 29.1472 91.4322 28.5616 90.7758 27.8143C90.1296 27.057 89.6348 26.1735 89.2915 25.1637C88.9482 24.154 88.7765 23.0584 88.7765 21.8769ZM91.5786 21.5286V21.8769C91.5786 22.6948 91.6745 23.4673 91.8664 24.1943C92.0582 24.9113 92.346 25.5474 92.7297 26.1028C93.1235 26.6582 93.6133 27.0974 94.1989 27.4205C94.7846 27.7336 95.4662 27.8901 96.2437 27.8901C97.0111 27.8901 97.6826 27.7336 98.2582 27.4205C98.8438 27.0974 99.3285 26.6582 99.7122 26.1028C100.096 25.5474 100.384 24.9113 100.576 24.1943C100.778 23.4673 100.879 22.6948 100.879 21.8769V21.5286C100.879 20.7208 100.778 19.9584 100.576 19.2415C100.384 18.5144 100.091 17.8732 99.6971 17.3179C99.3134 16.7524 98.8287 16.3081 98.243 15.985C97.6675 15.6618 96.9909 15.5003 96.2134 15.5003C95.446 15.5003 94.7694 15.6618 94.1838 15.985C93.6082 16.3081 93.1235 16.7524 92.7297 17.3179C92.346 17.8732 92.0582 18.5144 91.8664 19.2415C91.6745 19.9584 91.5786 20.7208 91.5786 21.5286ZM110.012 16.6514V36.1903H107.195V13.501H109.769L110.012 16.6514ZM121.054 21.5589V21.8769C121.054 23.0685 120.912 24.1741 120.629 25.194C120.347 26.2038 119.933 27.0823 119.387 27.8295C118.852 28.5767 118.191 29.1573 117.403 29.5713C116.616 29.9853 115.712 30.1923 114.692 30.1923C113.652 30.1923 112.733 30.0207 111.935 29.6774C111.138 29.334 110.461 28.8342 109.906 28.1779C109.35 27.5215 108.906 26.7339 108.573 25.815C108.25 24.8961 108.028 23.8611 107.906 22.71V21.0136C108.028 19.8019 108.255 18.7164 108.588 17.7571C108.921 16.7978 109.361 15.9799 109.906 15.3034C110.461 14.6167 111.133 14.0967 111.92 13.7433C112.708 13.3798 113.617 13.198 114.647 13.198C115.677 13.198 116.59 13.4 117.388 13.8039C118.186 14.1977 118.857 14.7632 119.403 15.5003C119.948 16.2374 120.357 17.121 120.629 18.1509C120.912 19.1708 121.054 20.3068 121.054 21.5589ZM118.236 21.8769V21.5589C118.236 20.741 118.151 19.9735 117.979 19.2566C117.807 18.5296 117.54 17.8934 117.176 17.3481C116.823 16.7928 116.368 16.3586 115.813 16.0456C115.258 15.7224 114.596 15.5609 113.829 15.5609C113.122 15.5609 112.506 15.682 111.981 15.9244C111.466 16.1667 111.027 16.4949 110.663 16.9089C110.3 17.3128 110.002 17.7773 109.769 18.3024C109.547 18.8174 109.381 19.3525 109.27 19.9079V23.8308C109.472 24.5377 109.754 25.2041 110.118 25.8302C110.481 26.4461 110.966 26.9459 111.572 27.3297C112.178 27.7033 112.94 27.8901 113.859 27.8901C114.616 27.8901 115.268 27.7336 115.813 27.4205C116.368 27.0974 116.823 26.6582 117.176 26.1028C117.54 25.5474 117.807 24.9113 117.979 24.1943C118.151 23.4673 118.236 22.6948 118.236 21.8769ZM127.673 6.62447V29.8894H124.855V6.62447H127.673ZM138.972 30.1923C137.831 30.1923 136.796 30.0005 135.867 29.6168C134.948 29.223 134.155 28.6726 133.489 27.9658C132.832 27.259 132.328 26.4209 131.974 25.4515C131.621 24.4821 131.444 23.4219 131.444 22.2707V21.6346C131.444 20.3017 131.641 19.1152 132.035 18.0752C132.429 17.025 132.964 16.1364 133.64 15.4094C134.317 14.6824 135.084 14.1321 135.943 13.7584C136.801 13.3848 137.689 13.198 138.608 13.198C139.78 13.198 140.789 13.4 141.638 13.8039C142.496 14.2078 143.198 14.7733 143.743 15.5003C144.288 16.2172 144.692 17.0654 144.955 18.0449C145.217 19.0143 145.348 20.0745 145.348 21.2256V22.4828H133.11V20.1957H142.546V19.9836C142.506 19.2566 142.355 18.5498 142.092 17.8631C141.84 17.1765 141.436 16.611 140.88 16.1667C140.325 15.7224 139.568 15.5003 138.608 15.5003C137.972 15.5003 137.386 15.6366 136.851 15.9092C136.316 16.1718 135.857 16.5656 135.473 17.0907C135.089 17.6157 134.791 18.2569 134.579 19.0143C134.367 19.7716 134.261 20.645 134.261 21.6346V22.2707C134.261 23.0483 134.367 23.7803 134.579 24.467C134.801 25.1435 135.12 25.7393 135.534 26.2543C135.958 26.7692 136.468 27.1731 137.063 27.466C137.669 27.7588 138.356 27.9052 139.123 27.9052C140.113 27.9052 140.951 27.7033 141.638 27.2994C142.324 26.8955 142.925 26.3552 143.44 25.6787L145.136 27.0267C144.783 27.5619 144.334 28.0718 143.788 28.5565C143.243 29.0412 142.572 29.435 141.774 29.7379C140.986 30.0409 140.052 30.1923 138.972 30.1923ZM155.481 13.501V15.6517H146.621V13.501H155.481ZM149.62 9.51744H152.422V25.8302C152.422 26.3855 152.508 26.8046 152.679 27.0873C152.851 27.37 153.073 27.5569 153.346 27.6477C153.618 27.7386 153.911 27.784 154.224 27.784C154.457 27.784 154.699 27.7639 154.951 27.7235C155.214 27.673 155.411 27.6326 155.542 27.6023L155.557 29.8894C155.335 29.9601 155.042 30.0257 154.679 30.0863C154.325 30.157 153.896 30.1923 153.391 30.1923C152.705 30.1923 152.073 30.056 151.498 29.7834C150.922 29.5107 150.463 29.0563 150.12 28.4202C149.786 27.774 149.62 26.9056 149.62 25.815V9.51744Z" fill="#999999"/>
<path d="M4.26672 12.197C15.8153 -7.73692 36.3901 -1.58123 29.9268 19.076C23.4635 39.7332 42.4466 20.0016 41.5313 31.969C40.616 43.9364 4.69388 43.0159 16.2374 31.0383C27.7758 19.0608 29.103 14.9486 17.2341 22.6571C5.36513 30.3656 -4.5765 27.4572 4.26672 12.197Z" fill="#999999"/>
<path d="M4.26672 12.197C15.8153 -7.73692 36.3901 -1.58123 29.9268 19.076C23.4635 39.7332 42.4466 20.0016 41.5313 31.969C40.616 43.9364 4.69388 43.0159 16.2374 31.0383C27.7758 19.0608 29.103 14.9486 17.2341 22.6571C5.36513 30.3656 -4.5765 27.4572 4.26672 12.197Z" fill="#999999"/>
</svg>
